<?xml version="1.0" encoding="UTF-8" standalone="no"?>
<!DOCTYPE svg PUBLIC "-//W3C//DTD SVG 1.1//EN"
 "http://www.w3.org/Graphics/SVG/1.1/DTD/svg11.dtd">
<!-- Generated by graphviz version 2.46.1 (20210213.1702)
 -->
<!-- Title: dependencies Pages: 1 -->
<svg width="874pt" height="284pt"
 viewBox="0.00 0.00 874.00 284.00" xmlns="http://www.w3.org/2000/svg" xmlns:xlink="http://www.w3.org/1999/xlink">
<g id="graph0" class="graph" transform="scale(1 1) rotate(0) translate(4 280)">
<title>dependencies</title>
<polygon fill="white" stroke="transparent" points="-4,4 -4,-280 870,-280 870,4 -4,4"/>
<text text-anchor="start" x="412.01" y="-42.4" font-family="sans-serif" font-weight="bold" font-size="14.00">Legend</text>
<polygon fill="#ffffb3" stroke="transparent" points="199,-10 199,-30 219,-30 219,-10 199,-10"/>
<text text-anchor="start" x="222.63" y="-15.4" font-family="sans-serif" font-size="14.00"> &#160;Declarations</text>
<polygon fill="#8dd3c7" stroke="transparent" points="312,-10 312,-30 332,-30 332,-10 312,-10"/>
<text text-anchor="start" x="335.73" y="-15.4" font-family="sans-serif" font-size="14.00"> &#160;Module</text>
<polygon fill="#80b1d3" stroke="transparent" points="398,-10 398,-30 418,-30 418,-10 398,-10"/>
<text text-anchor="start" x="421.78" y="-15.4" font-family="sans-serif" font-size="14.00"> &#160;Bootstrap</text>
<polygon fill="#fdb462" stroke="transparent" points="495,-10 495,-30 515,-30 515,-10 495,-10"/>
<text text-anchor="start" x="518.67" y="-15.4" font-family="sans-serif" font-size="14.00"> &#160;Providers</text>
<polygon fill="#fb8072" stroke="transparent" points="591,-10 591,-30 611,-30 611,-10 591,-10"/>
<text text-anchor="start" x="614.73" y="-15.4" font-family="sans-serif" font-size="14.00"> &#160;Exports</text>
<g id="clust1" class="cluster">
<title>cluster_SharedModule</title>
<polygon fill="none" stroke="black" stroke-dasharray="1,5" points="8,-70 8,-268 858,-268 858,-70 8,-70"/>
</g>
<g id="clust2" class="cluster">
<title>cluster_SharedModule_declarations</title>
<polygon fill="none" stroke="black" points="25,-78 25,-130 841,-130 841,-78 25,-78"/>
</g>
<g id="clust9" class="cluster">
<title>cluster_SharedModule_exports</title>
<polygon fill="none" stroke="black" points="16,-208 16,-260 850,-260 850,-208 16,-208"/>
</g>
<!-- BreadcrumbComponent -->
<g id="node1" class="node">
<title>BreadcrumbComponent</title>
<polygon fill="#ffffb3" stroke="black" points="833.03,-122 682.97,-122 682.97,-86 833.03,-86 833.03,-122"/>
<text text-anchor="middle" x="758" y="-99.8" font-family="Times,serif" font-size="14.00">BreadcrumbComponent</text>
</g>
<!-- SharedModule -->
<g id="node6" class="node">
<title>SharedModule</title>
<polygon fill="#8dd3c7" stroke="black" points="487.42,-187 484.42,-191 463.42,-191 460.42,-187 388.58,-187 388.58,-151 487.42,-151 487.42,-187"/>
<text text-anchor="middle" x="438" y="-164.8" font-family="Times,serif" font-size="14.00">SharedModule</text>
</g>
<!-- BreadcrumbComponent&#45;&gt;SharedModule -->
<g id="edge1" class="edge">
<title>BreadcrumbComponent&#45;&gt;SharedModule</title>
<path fill="none" stroke="black" d="M784.84,-122.27C784.84,-140.56 784.84,-166 784.84,-166 784.84,-166 497.33,-166 497.33,-166"/>
<polygon fill="black" stroke="black" points="497.33,-162.5 487.33,-166 497.32,-169.5 497.33,-162.5"/>
</g>
<!-- CarouselComponent -->
<g id="node2" class="node">
<title>CarouselComponent</title>
<polygon fill="#ffffb3" stroke="black" points="664.59,-122 533.41,-122 533.41,-86 664.59,-86 664.59,-122"/>
<text text-anchor="middle" x="599" y="-99.8" font-family="Times,serif" font-size="14.00">CarouselComponent</text>
</g>
<!-- CarouselComponent&#45;&gt;SharedModule -->
<g id="edge2" class="edge">
<title>CarouselComponent&#45;&gt;SharedModule</title>
<path fill="none" stroke="black" d="M621.6,-122.01C621.6,-138.05 621.6,-159 621.6,-159 621.6,-159 497.68,-159 497.68,-159"/>
<polygon fill="black" stroke="black" points="497.68,-155.5 487.68,-159 497.68,-162.5 497.68,-155.5"/>
</g>
<!-- ContactFormComponent -->
<g id="node3" class="node">
<title>ContactFormComponent</title>
<polygon fill="#ffffb3" stroke="black" points="515.71,-122 360.29,-122 360.29,-86 515.71,-86 515.71,-122"/>
<text text-anchor="middle" x="438" y="-99.8" font-family="Times,serif" font-size="14.00">ContactFormComponent</text>
</g>
<!-- ContactFormComponent&#45;&gt;SharedModule -->
<g id="edge3" class="edge">
<title>ContactFormComponent&#45;&gt;SharedModule</title>
<path fill="none" stroke="black" d="M438,-122.11C438,-122.11 438,-140.99 438,-140.99"/>
<polygon fill="black" stroke="black" points="434.5,-140.99 438,-150.99 441.5,-140.99 434.5,-140.99"/>
</g>
<!-- NewscardComponent -->
<g id="node4" class="node">
<title>NewscardComponent</title>
<polygon fill="#ffffb3" stroke="black" points="342.79,-122 205.21,-122 205.21,-86 342.79,-86 342.79,-122"/>
<text text-anchor="middle" x="274" y="-99.8" font-family="Times,serif" font-size="14.00">NewscardComponent</text>
</g>
<!-- NewscardComponent&#45;&gt;SharedModule -->
<g id="edge4" class="edge">
<title>NewscardComponent&#45;&gt;SharedModule</title>
<path fill="none" stroke="black" d="M295.38,-122.01C295.38,-138.05 295.38,-159 295.38,-159 295.38,-159 378.52,-159 378.52,-159"/>
<polygon fill="black" stroke="black" points="378.52,-162.5 388.52,-159 378.52,-155.5 378.52,-162.5"/>
</g>
<!-- RouterOutletComponent -->
<g id="node5" class="node">
<title>RouterOutletComponent</title>
<polygon fill="#ffffb3" stroke="black" points="187.43,-122 32.57,-122 32.57,-86 187.43,-86 187.43,-122"/>
<text text-anchor="middle" x="110" y="-99.8" font-family="Times,serif" font-size="14.00">RouterOutletComponent</text>
</g>
<!-- RouterOutletComponent&#45;&gt;SharedModule -->
<g id="edge5" class="edge">
<title>RouterOutletComponent&#45;&gt;SharedModule</title>
<path fill="none" stroke="black" d="M132.24,-122.27C132.24,-140.56 132.24,-166 132.24,-166 132.24,-166 378.53,-166 378.53,-166"/>
<polygon fill="black" stroke="black" points="378.53,-169.5 388.53,-166 378.53,-162.5 378.53,-169.5"/>
</g>
<!-- BreadcrumbComponent  -->
<g id="node7" class="node">
<title>BreadcrumbComponent </title>
<polygon fill="#fb8072" stroke="black" points="842.02,-252 687.98,-252 687.98,-216 842.02,-216 842.02,-252"/>
<text text-anchor="middle" x="765" y="-229.8" font-family="Times,serif" font-size="14.00">BreadcrumbComponent </text>
</g>
<!-- SharedModule&#45;&gt;BreadcrumbComponent  -->
<g id="edge6" class="edge">
<title>SharedModule&#45;&gt;BreadcrumbComponent </title>
<path fill="none" stroke="black" stroke-dasharray="5,2" d="M487.28,-173C572.03,-173 736.41,-173 736.41,-173 736.41,-173 736.41,-205.7 736.41,-205.7"/>
<polygon fill="black" stroke="black" points="732.91,-205.7 736.41,-215.7 739.91,-205.7 732.91,-205.7"/>
</g>
<!-- CarouselComponent  -->
<g id="node8" class="node">
<title>CarouselComponent </title>
<polygon fill="#fb8072" stroke="black" points="670.09,-252 535.91,-252 535.91,-216 670.09,-216 670.09,-252"/>
<text text-anchor="middle" x="603" y="-229.8" font-family="Times,serif" font-size="14.00">CarouselComponent </text>
</g>
<!-- SharedModule&#45;&gt;CarouselComponent  -->
<g id="edge7" class="edge">
<title>SharedModule&#45;&gt;CarouselComponent </title>
<path fill="none" stroke="black" stroke-dasharray="5,2" d="M487.59,-180C528.08,-180 578.65,-180 578.65,-180 578.65,-180 578.65,-205.72 578.65,-205.72"/>
<polygon fill="black" stroke="black" points="575.15,-205.72 578.65,-215.72 582.15,-205.72 575.15,-205.72"/>
</g>
<!-- ContactFormComponent  -->
<g id="node9" class="node">
<title>ContactFormComponent </title>
<polygon fill="#fb8072" stroke="black" points="517.21,-252 358.79,-252 358.79,-216 517.21,-216 517.21,-252"/>
<text text-anchor="middle" x="438" y="-229.8" font-family="Times,serif" font-size="14.00">ContactFormComponent </text>
</g>
<!-- SharedModule&#45;&gt;ContactFormComponent  -->
<g id="edge8" class="edge">
<title>SharedModule&#45;&gt;ContactFormComponent </title>
<path fill="none" stroke="black" stroke-dasharray="5,2" d="M438,-187.11C438,-187.11 438,-205.99 438,-205.99"/>
<polygon fill="black" stroke="black" points="434.5,-205.99 438,-215.99 441.5,-205.99 434.5,-205.99"/>
</g>
<!-- NewscardComponent  -->
<g id="node10" class="node">
<title>NewscardComponent </title>
<polygon fill="#fb8072" stroke="black" points="340.29,-252 199.71,-252 199.71,-216 340.29,-216 340.29,-252"/>
<text text-anchor="middle" x="270" y="-229.8" font-family="Times,serif" font-size="14.00">NewscardComponent </text>
</g>
<!-- SharedModule&#45;&gt;NewscardComponent  -->
<g id="edge9" class="edge">
<title>SharedModule&#45;&gt;NewscardComponent </title>
<path fill="none" stroke="black" stroke-dasharray="5,2" d="M388.7,-180C333.11,-180 250.37,-180 250.37,-180 250.37,-180 250.37,-205.72 250.37,-205.72"/>
<polygon fill="black" stroke="black" points="246.87,-205.72 250.37,-215.72 253.87,-205.72 246.87,-205.72"/>
</g>
<!-- RouterOutletComponent  -->
<g id="node11" class="node">
<title>RouterOutletComponent </title>
<polygon fill="#fb8072" stroke="black" points="181.93,-252 24.07,-252 24.07,-216 181.93,-216 181.93,-252"/>
<text text-anchor="middle" x="103" y="-229.8" font-family="Times,serif" font-size="14.00">RouterOutletComponent </text>
</g>
<!-- SharedModule&#45;&gt;RouterOutletComponent  -->
<g id="edge10" class="edge">
<title>SharedModule&#45;&gt;RouterOutletComponent </title>
<path fill="none" stroke="black" stroke-dasharray="5,2" d="M388.57,-173C290.89,-173 82.51,-173 82.51,-173 82.51,-173 82.51,-205.7 82.51,-205.7"/>
<polygon fill="black" stroke="black" points="79.01,-205.7 82.51,-215.7 86.01,-205.7 79.01,-205.7"/>
</g>
</g>
</svg>
