<?xml version="1.0" encoding="UTF-8" standalone="no"?>
<!DOCTYPE svg PUBLIC "-//W3C//DTD SVG 1.1//EN"
 "http://www.w3.org/Graphics/SVG/1.1/DTD/svg11.dtd">
<!-- Generated by graphviz version 2.46.1 (20210213.1702)
 -->
<!-- Title: dependencies Pages: 1 -->
<svg width="636pt" height="284pt"
 viewBox="0.00 0.00 636.00 284.00" xmlns="http://www.w3.org/2000/svg" xmlns:xlink="http://www.w3.org/1999/xlink">
<g id="graph0" class="graph" transform="scale(1 1) rotate(0) translate(4 280)">
<title>dependencies</title>
<polygon fill="white" stroke="transparent" points="-4,4 -4,-280 632,-280 632,4 -4,4"/>
<text text-anchor="start" x="293.01" y="-42.4" font-family="sans-serif" font-weight="bold" font-size="14.00">Legend</text>
<polygon fill="#ffffb3" stroke="transparent" points="80,-10 80,-30 100,-30 100,-10 80,-10"/>
<text text-anchor="start" x="103.63" y="-15.4" font-family="sans-serif" font-size="14.00"> &#160;Declarations</text>
<polygon fill="#8dd3c7" stroke="transparent" points="193,-10 193,-30 213,-30 213,-10 193,-10"/>
<text text-anchor="start" x="216.73" y="-15.4" font-family="sans-serif" font-size="14.00"> &#160;Module</text>
<polygon fill="#80b1d3" stroke="transparent" points="279,-10 279,-30 299,-30 299,-10 279,-10"/>
<text text-anchor="start" x="302.78" y="-15.4" font-family="sans-serif" font-size="14.00"> &#160;Bootstrap</text>
<polygon fill="#fdb462" stroke="transparent" points="376,-10 376,-30 396,-30 396,-10 376,-10"/>
<text text-anchor="start" x="399.67" y="-15.4" font-family="sans-serif" font-size="14.00"> &#160;Providers</text>
<polygon fill="#fb8072" stroke="transparent" points="472,-10 472,-30 492,-30 492,-10 472,-10"/>
<text text-anchor="start" x="495.73" y="-15.4" font-family="sans-serif" font-size="14.00"> &#160;Exports</text>
<g id="clust1" class="cluster">
<title>cluster_AuthModule</title>
<polygon fill="none" stroke="black" stroke-dasharray="1,5" points="8,-70 8,-268 620,-268 620,-70 8,-70"/>
</g>
<g id="clust6" class="cluster">
<title>cluster_AuthModule_imports</title>
<polygon fill="none" stroke="black" points="498,-78 498,-130 612,-130 612,-78 498,-78"/>
</g>
<g id="clust7" class="cluster">
<title>cluster_AuthModule_exports</title>
<polygon fill="none" stroke="black" points="72,-208 72,-260 556,-260 556,-208 72,-208"/>
</g>
<g id="clust2" class="cluster">
<title>cluster_AuthModule_declarations</title>
<polygon fill="none" stroke="black" points="16,-78 16,-130 490,-130 490,-78 16,-78"/>
</g>
<!-- LoginComponent -->
<g id="node1" class="node">
<title>LoginComponent</title>
<polygon fill="#ffffb3" stroke="black" points="482.28,-122 367.72,-122 367.72,-86 482.28,-86 482.28,-122"/>
<text text-anchor="middle" x="425" y="-99.8" font-family="Times,serif" font-size="14.00">LoginComponent</text>
</g>
<!-- AuthModule -->
<g id="node4" class="node">
<title>AuthModule</title>
<polygon fill="#8dd3c7" stroke="black" points="375.55,-187 372.55,-191 351.55,-191 348.55,-187 288.45,-187 288.45,-151 375.55,-151 375.55,-187"/>
<text text-anchor="middle" x="332" y="-164.8" font-family="Times,serif" font-size="14.00">AuthModule</text>
</g>
<!-- LoginComponent&#45;&gt;AuthModule -->
<g id="edge1" class="edge">
<title>LoginComponent&#45;&gt;AuthModule</title>
<path fill="none" stroke="black" d="M371.69,-122.11C371.69,-122.11 371.69,-140.99 371.69,-140.99"/>
<polygon fill="black" stroke="black" points="368.19,-140.99 371.69,-150.99 375.19,-140.99 368.19,-140.99"/>
</g>
<!-- ProfileVerifyComponent -->
<g id="node2" class="node">
<title>ProfileVerifyComponent</title>
<polygon fill="#ffffb3" stroke="black" points="349.97,-122 194.03,-122 194.03,-86 349.97,-86 349.97,-122"/>
<text text-anchor="middle" x="272" y="-99.8" font-family="Times,serif" font-size="14.00">ProfileVerifyComponent</text>
</g>
<!-- ProfileVerifyComponent&#45;&gt;AuthModule -->
<g id="edge2" class="edge">
<title>ProfileVerifyComponent&#45;&gt;AuthModule</title>
<path fill="none" stroke="black" d="M319.1,-122.11C319.1,-122.11 319.1,-140.99 319.1,-140.99"/>
<polygon fill="black" stroke="black" points="315.6,-140.99 319.1,-150.99 322.6,-140.99 315.6,-140.99"/>
</g>
<!-- VerifyEmailComponent -->
<g id="node3" class="node">
<title>VerifyEmailComponent</title>
<polygon fill="#ffffb3" stroke="black" points="175.8,-122 24.2,-122 24.2,-86 175.8,-86 175.8,-122"/>
<text text-anchor="middle" x="100" y="-99.8" font-family="Times,serif" font-size="14.00">VerifyEmailComponent</text>
</g>
<!-- VerifyEmailComponent&#45;&gt;AuthModule -->
<g id="edge3" class="edge">
<title>VerifyEmailComponent&#45;&gt;AuthModule</title>
<path fill="none" stroke="black" d="M127.62,-122.02C127.62,-139.37 127.62,-163 127.62,-163 127.62,-163 278.41,-163 278.41,-163"/>
<polygon fill="black" stroke="black" points="278.41,-166.5 288.41,-163 278.41,-159.5 278.41,-166.5"/>
</g>
<!-- LoginComponent  -->
<g id="node6" class="node">
<title>LoginComponent </title>
<polygon fill="#fb8072" stroke="black" points="548.28,-252 429.72,-252 429.72,-216 548.28,-216 548.28,-252"/>
<text text-anchor="middle" x="489" y="-229.8" font-family="Times,serif" font-size="14.00">LoginComponent </text>
</g>
<!-- AuthModule&#45;&gt;LoginComponent  -->
<g id="edge5" class="edge">
<title>AuthModule&#45;&gt;LoginComponent </title>
<path fill="none" stroke="black" stroke-dasharray="5,2" d="M375.76,-175C411.5,-175 456.12,-175 456.12,-175 456.12,-175 456.12,-205.98 456.12,-205.98"/>
<polygon fill="black" stroke="black" points="452.63,-205.98 456.12,-215.98 459.63,-205.98 452.63,-205.98"/>
</g>
<!-- ProfileVerifyComponent  -->
<g id="node7" class="node">
<title>ProfileVerifyComponent </title>
<polygon fill="#fb8072" stroke="black" points="411.97,-252 252.03,-252 252.03,-216 411.97,-216 411.97,-252"/>
<text text-anchor="middle" x="332" y="-229.8" font-family="Times,serif" font-size="14.00">ProfileVerifyComponent </text>
</g>
<!-- AuthModule&#45;&gt;ProfileVerifyComponent  -->
<g id="edge6" class="edge">
<title>AuthModule&#45;&gt;ProfileVerifyComponent </title>
<path fill="none" stroke="black" stroke-dasharray="5,2" d="M332,-187.11C332,-187.11 332,-205.99 332,-205.99"/>
<polygon fill="black" stroke="black" points="328.5,-205.99 332,-215.99 335.5,-205.99 328.5,-205.99"/>
</g>
<!-- VerifyEmailComponent  -->
<g id="node8" class="node">
<title>VerifyEmailComponent </title>
<polygon fill="#fb8072" stroke="black" points="234.3,-252 79.7,-252 79.7,-216 234.3,-216 234.3,-252"/>
<text text-anchor="middle" x="157" y="-229.8" font-family="Times,serif" font-size="14.00">VerifyEmailComponent </text>
</g>
<!-- AuthModule&#45;&gt;VerifyEmailComponent  -->
<g id="edge7" class="edge">
<title>AuthModule&#45;&gt;VerifyEmailComponent </title>
<path fill="none" stroke="black" stroke-dasharray="5,2" d="M288.14,-175C254.65,-175 214.21,-175 214.21,-175 214.21,-175 214.21,-205.98 214.21,-205.98"/>
<polygon fill="black" stroke="black" points="210.71,-205.98 214.21,-215.98 217.71,-205.98 210.71,-205.98"/>
</g>
<!-- SharedModule -->
<g id="node5" class="node">
<title>SharedModule</title>
<polygon fill="#8dd3c7" stroke="black" points="604.42,-122 601.42,-126 580.42,-126 577.42,-122 505.58,-122 505.58,-86 604.42,-86 604.42,-122"/>
<text text-anchor="middle" x="555" y="-99.8" font-family="Times,serif" font-size="14.00">SharedModule</text>
</g>
<!-- SharedModule&#45;&gt;AuthModule -->
<g id="edge4" class="edge">
<title>SharedModule&#45;&gt;AuthModule</title>
<path fill="none" stroke="black" d="M526.96,-122.02C526.96,-139.37 526.96,-163 526.96,-163 526.96,-163 385.75,-163 385.75,-163"/>
<polygon fill="black" stroke="black" points="385.75,-159.5 375.75,-163 385.75,-166.5 385.75,-159.5"/>
</g>
</g>
</svg>
