<?xml version="1.0" encoding="UTF-8" standalone="no"?>
<!DOCTYPE svg PUBLIC "-//W3C//DTD SVG 1.1//EN"
 "http://www.w3.org/Graphics/SVG/1.1/DTD/svg11.dtd">
<!-- Generated by graphviz version 2.46.1 (20210213.1702)
 -->
<!-- Title: dependencies Pages: 1 -->
<svg width="1468pt" height="284pt"
 viewBox="0.00 0.00 1468.00 284.00" xmlns="http://www.w3.org/2000/svg" xmlns:xlink="http://www.w3.org/1999/xlink">
<g id="graph0" class="graph" transform="scale(1 1) rotate(0) translate(4 280)">
<title>dependencies</title>
<polygon fill="white" stroke="transparent" points="-4,4 -4,-280 1464,-280 1464,4 -4,4"/>
<text text-anchor="start" x="709.01" y="-42.4" font-family="sans-serif" font-weight="bold" font-size="14.00">Legend</text>
<polygon fill="#ffffb3" stroke="transparent" points="496,-10 496,-30 516,-30 516,-10 496,-10"/>
<text text-anchor="start" x="519.63" y="-15.4" font-family="sans-serif" font-size="14.00"> &#160;Declarations</text>
<polygon fill="#8dd3c7" stroke="transparent" points="609,-10 609,-30 629,-30 629,-10 609,-10"/>
<text text-anchor="start" x="632.73" y="-15.4" font-family="sans-serif" font-size="14.00"> &#160;Module</text>
<polygon fill="#80b1d3" stroke="transparent" points="695,-10 695,-30 715,-30 715,-10 695,-10"/>
<text text-anchor="start" x="718.78" y="-15.4" font-family="sans-serif" font-size="14.00"> &#160;Bootstrap</text>
<polygon fill="#fdb462" stroke="transparent" points="792,-10 792,-30 812,-30 812,-10 792,-10"/>
<text text-anchor="start" x="815.67" y="-15.4" font-family="sans-serif" font-size="14.00"> &#160;Providers</text>
<polygon fill="#fb8072" stroke="transparent" points="888,-10 888,-30 908,-30 908,-10 888,-10"/>
<text text-anchor="start" x="911.73" y="-15.4" font-family="sans-serif" font-size="14.00"> &#160;Exports</text>
<g id="clust1" class="cluster">
<title>cluster_ArchiveModule</title>
<polygon fill="none" stroke="black" stroke-dasharray="1,5" points="8,-70 8,-268 1452,-268 1452,-70 8,-70"/>
</g>
<g id="clust11" class="cluster">
<title>cluster_ArchiveModule_exports</title>
<polygon fill="none" stroke="black" points="252,-208 252,-260 1193,-260 1193,-208 252,-208"/>
</g>
<g id="clust2" class="cluster">
<title>cluster_ArchiveModule_declarations</title>
<polygon fill="none" stroke="black" points="138,-78 138,-130 1444,-130 1444,-78 138,-78"/>
</g>
<g id="clust10" class="cluster">
<title>cluster_ArchiveModule_imports</title>
<polygon fill="none" stroke="black" points="16,-78 16,-130 130,-130 130,-78 16,-78"/>
</g>
<!-- AssociatesComponent -->
<g id="node1" class="node">
<title>AssociatesComponent</title>
<polygon fill="#ffffb3" stroke="black" points="1435.7,-122 1294.3,-122 1294.3,-86 1435.7,-86 1435.7,-122"/>
<text text-anchor="middle" x="1365" y="-99.8" font-family="Times,serif" font-size="14.00">AssociatesComponent</text>
</g>
<!-- ArchiveModule -->
<g id="node8" class="node">
<title>ArchiveModule</title>
<polygon fill="#8dd3c7" stroke="black" points="804.14,-187 801.14,-191 780.14,-191 777.14,-187 699.86,-187 699.86,-151 804.14,-151 804.14,-187"/>
<text text-anchor="middle" x="752" y="-164.8" font-family="Times,serif" font-size="14.00">ArchiveModule</text>
</g>
<!-- AssociatesComponent&#45;&gt;ArchiveModule -->
<g id="edge1" class="edge">
<title>AssociatesComponent&#45;&gt;ArchiveModule</title>
<path fill="none" stroke="black" d="M1365,-122.11C1365,-141.34 1365,-169 1365,-169 1365,-169 814.26,-169 814.26,-169"/>
<polygon fill="black" stroke="black" points="814.26,-165.5 804.26,-169 814.26,-172.5 814.26,-165.5"/>
</g>
<!-- MeasureDetailsComponent -->
<g id="node2" class="node">
<title>MeasureDetailsComponent</title>
<polygon fill="#ffffb3" stroke="black" points="1276.68,-122 1107.32,-122 1107.32,-86 1276.68,-86 1276.68,-122"/>
<text text-anchor="middle" x="1192" y="-99.8" font-family="Times,serif" font-size="14.00">MeasureDetailsComponent</text>
</g>
<!-- MeasureDetailsComponent&#45;&gt;ArchiveModule -->
<g id="edge2" class="edge">
<title>MeasureDetailsComponent&#45;&gt;ArchiveModule</title>
<path fill="none" stroke="black" d="M1146.38,-122.02C1146.38,-139.37 1146.38,-163 1146.38,-163 1146.38,-163 814.37,-163 814.37,-163"/>
<polygon fill="black" stroke="black" points="814.37,-159.5 804.37,-163 814.37,-166.5 814.37,-159.5"/>
</g>
<!-- MeasuresComponent -->
<g id="node3" class="node">
<title>MeasuresComponent</title>
<polygon fill="#ffffb3" stroke="black" points="1089.47,-122 954.53,-122 954.53,-86 1089.47,-86 1089.47,-122"/>
<text text-anchor="middle" x="1022" y="-99.8" font-family="Times,serif" font-size="14.00">MeasuresComponent</text>
</g>
<!-- MeasuresComponent&#45;&gt;ArchiveModule -->
<g id="edge3" class="edge">
<title>MeasuresComponent&#45;&gt;ArchiveModule</title>
<path fill="none" stroke="black" d="M974.38,-122.24C974.38,-137.57 974.38,-157 974.38,-157 974.38,-157 814.42,-157 814.42,-157"/>
<polygon fill="black" stroke="black" points="814.42,-153.5 804.42,-157 814.42,-160.5 814.42,-153.5"/>
</g>
<!-- MembersHomeComponent -->
<g id="node4" class="node">
<title>MembersHomeComponent</title>
<polygon fill="#ffffb3" stroke="black" points="936.41,-122 767.59,-122 767.59,-86 936.41,-86 936.41,-122"/>
<text text-anchor="middle" x="852" y="-99.8" font-family="Times,serif" font-size="14.00">MembersHomeComponent</text>
</g>
<!-- MembersHomeComponent&#45;&gt;ArchiveModule -->
<g id="edge4" class="edge">
<title>MembersHomeComponent&#45;&gt;ArchiveModule</title>
<path fill="none" stroke="black" d="M786.06,-122.11C786.06,-122.11 786.06,-140.99 786.06,-140.99"/>
<polygon fill="black" stroke="black" points="782.56,-140.99 786.06,-150.99 789.56,-140.99 782.56,-140.99"/>
</g>
<!-- MembersNavigationComponent -->
<g id="node5" class="node">
<title>MembersNavigationComponent</title>
<polygon fill="#ffffb3" stroke="black" points="750.41,-122 553.59,-122 553.59,-86 750.41,-86 750.41,-122"/>
<text text-anchor="middle" x="652" y="-99.8" font-family="Times,serif" font-size="14.00">MembersNavigationComponent</text>
</g>
<!-- MembersNavigationComponent&#45;&gt;ArchiveModule -->
<g id="edge5" class="edge">
<title>MembersNavigationComponent&#45;&gt;ArchiveModule</title>
<path fill="none" stroke="black" d="M724.94,-122.11C724.94,-122.11 724.94,-140.99 724.94,-140.99"/>
<polygon fill="black" stroke="black" points="721.44,-140.99 724.94,-150.99 728.44,-140.99 721.44,-140.99"/>
</g>
<!-- MembersNewsComponent -->
<g id="node6" class="node">
<title>MembersNewsComponent</title>
<polygon fill="#ffffb3" stroke="black" points="536.07,-122 369.93,-122 369.93,-86 536.07,-86 536.07,-122"/>
<text text-anchor="middle" x="453" y="-99.8" font-family="Times,serif" font-size="14.00">MembersNewsComponent</text>
</g>
<!-- MembersNewsComponent&#45;&gt;ArchiveModule -->
<g id="edge6" class="edge">
<title>MembersNewsComponent&#45;&gt;ArchiveModule</title>
<path fill="none" stroke="black" d="M492.04,-122.24C492.04,-137.57 492.04,-157 492.04,-157 492.04,-157 689.71,-157 689.71,-157"/>
<polygon fill="black" stroke="black" points="689.71,-160.5 699.71,-157 689.71,-153.5 689.71,-160.5"/>
</g>
<!-- MembersNewsDetailsComponent -->
<g id="node7" class="node">
<title>MembersNewsDetailsComponent</title>
<polygon fill="#ffffb3" stroke="black" points="351.73,-122 146.27,-122 146.27,-86 351.73,-86 351.73,-122"/>
<text text-anchor="middle" x="249" y="-99.8" font-family="Times,serif" font-size="14.00">MembersNewsDetailsComponent</text>
</g>
<!-- MembersNewsDetailsComponent&#45;&gt;ArchiveModule -->
<g id="edge7" class="edge">
<title>MembersNewsDetailsComponent&#45;&gt;ArchiveModule</title>
<path fill="none" stroke="black" d="M306.04,-122.02C306.04,-139.37 306.04,-163 306.04,-163 306.04,-163 689.53,-163 689.53,-163"/>
<polygon fill="black" stroke="black" points="689.53,-166.5 699.53,-163 689.53,-159.5 689.53,-166.5"/>
</g>
<!-- MeasureDetailsComponent  -->
<g id="node10" class="node">
<title>MeasureDetailsComponent </title>
<polygon fill="#fb8072" stroke="black" points="1185.18,-252 1012.82,-252 1012.82,-216 1185.18,-216 1185.18,-252"/>
<text text-anchor="middle" x="1099" y="-229.8" font-family="Times,serif" font-size="14.00">MeasureDetailsComponent </text>
</g>
<!-- ArchiveModule&#45;&gt;MeasureDetailsComponent  -->
<g id="edge9" class="edge">
<title>ArchiveModule&#45;&gt;MeasureDetailsComponent </title>
<path fill="none" stroke="black" stroke-dasharray="5,2" d="M804.44,-175C890.21,-175 1051.07,-175 1051.07,-175 1051.07,-175 1051.07,-205.98 1051.07,-205.98"/>
<polygon fill="black" stroke="black" points="1047.57,-205.98 1051.07,-215.98 1054.57,-205.98 1047.57,-205.98"/>
</g>
<!-- MeasuresComponent  -->
<g id="node11" class="node">
<title>MeasuresComponent </title>
<polygon fill="#fb8072" stroke="black" points="994.47,-252 855.53,-252 855.53,-216 994.47,-216 994.47,-252"/>
<text text-anchor="middle" x="925" y="-229.8" font-family="Times,serif" font-size="14.00">MeasuresComponent </text>
</g>
<!-- ArchiveModule&#45;&gt;MeasuresComponent  -->
<g id="edge10" class="edge">
<title>ArchiveModule&#45;&gt;MeasuresComponent </title>
<path fill="none" stroke="black" stroke-dasharray="5,2" d="M804.39,-181C845.56,-181 895.99,-181 895.99,-181 895.99,-181 895.99,-205.76 895.99,-205.76"/>
<polygon fill="black" stroke="black" points="892.49,-205.76 895.99,-215.76 899.49,-205.76 892.49,-205.76"/>
</g>
<!-- MembersHomeComponent  -->
<g id="node12" class="node">
<title>MembersHomeComponent </title>
<polygon fill="#fb8072" stroke="black" points="837.91,-252 666.09,-252 666.09,-216 837.91,-216 837.91,-252"/>
<text text-anchor="middle" x="752" y="-229.8" font-family="Times,serif" font-size="14.00">MembersHomeComponent </text>
</g>
<!-- ArchiveModule&#45;&gt;MembersHomeComponent  -->
<g id="edge11" class="edge">
<title>ArchiveModule&#45;&gt;MembersHomeComponent </title>
<path fill="none" stroke="black" stroke-dasharray="5,2" d="M752,-187.11C752,-187.11 752,-205.99 752,-205.99"/>
<polygon fill="black" stroke="black" points="748.5,-205.99 752,-215.99 755.5,-205.99 748.5,-205.99"/>
</g>
<!-- MembersNavigationComponent  -->
<g id="node13" class="node">
<title>MembersNavigationComponent </title>
<polygon fill="#fb8072" stroke="black" points="647.91,-252 448.09,-252 448.09,-216 647.91,-216 647.91,-252"/>
<text text-anchor="middle" x="548" y="-229.8" font-family="Times,serif" font-size="14.00">MembersNavigationComponent </text>
</g>
<!-- ArchiveModule&#45;&gt;MembersNavigationComponent  -->
<g id="edge12" class="edge">
<title>ArchiveModule&#45;&gt;MembersNavigationComponent </title>
<path fill="none" stroke="black" stroke-dasharray="5,2" d="M699.57,-181C655.92,-181 600.88,-181 600.88,-181 600.88,-181 600.88,-205.76 600.88,-205.76"/>
<polygon fill="black" stroke="black" points="597.38,-205.76 600.88,-215.76 604.38,-205.76 597.38,-205.76"/>
</g>
<!-- MembersNewsComponent  -->
<g id="node14" class="node">
<title>MembersNewsComponent </title>
<polygon fill="#fb8072" stroke="black" points="429.57,-252 260.43,-252 260.43,-216 429.57,-216 429.57,-252"/>
<text text-anchor="middle" x="345" y="-229.8" font-family="Times,serif" font-size="14.00">MembersNewsComponent </text>
</g>
<!-- ArchiveModule&#45;&gt;MembersNewsComponent  -->
<g id="edge13" class="edge">
<title>ArchiveModule&#45;&gt;MembersNewsComponent </title>
<path fill="none" stroke="black" stroke-dasharray="5,2" d="M699.66,-175C601.57,-175 399.88,-175 399.88,-175 399.88,-175 399.88,-205.98 399.88,-205.98"/>
<polygon fill="black" stroke="black" points="396.38,-205.98 399.88,-215.98 403.38,-205.98 396.38,-205.98"/>
</g>
<!-- SharedModule -->
<g id="node9" class="node">
<title>SharedModule</title>
<polygon fill="#8dd3c7" stroke="black" points="122.42,-122 119.42,-126 98.42,-126 95.42,-122 23.58,-122 23.58,-86 122.42,-86 122.42,-122"/>
<text text-anchor="middle" x="73" y="-99.8" font-family="Times,serif" font-size="14.00">SharedModule</text>
</g>
<!-- SharedModule&#45;&gt;ArchiveModule -->
<g id="edge8" class="edge">
<title>SharedModule&#45;&gt;ArchiveModule</title>
<path fill="none" stroke="black" d="M73,-122.11C73,-141.34 73,-169 73,-169 73,-169 689.85,-169 689.85,-169"/>
<polygon fill="black" stroke="black" points="689.85,-172.5 699.85,-169 689.85,-165.5 689.85,-172.5"/>
</g>
</g>
</svg>
