<?xml version="1.0" encoding="UTF-8" standalone="no"?>
<!DOCTYPE svg PUBLIC "-//W3C//DTD SVG 1.1//EN"
 "http://www.w3.org/Graphics/SVG/1.1/DTD/svg11.dtd">
<!-- Generated by graphviz version 2.46.1 (20210213.1702)
 -->
<!-- Title: dependencies Pages: 1 -->
<svg width="1434pt" height="284pt"
 viewBox="0.00 0.00 1434.00 284.00" xmlns="http://www.w3.org/2000/svg" xmlns:xlink="http://www.w3.org/1999/xlink">
<g id="graph0" class="graph" transform="scale(1 1) rotate(0) translate(4 280)">
<title>dependencies</title>
<polygon fill="white" stroke="transparent" points="-4,4 -4,-280 1430,-280 1430,4 -4,4"/>
<text text-anchor="start" x="692.01" y="-42.4" font-family="sans-serif" font-weight="bold" font-size="14.00">Legend</text>
<polygon fill="#ffffb3" stroke="transparent" points="479,-10 479,-30 499,-30 499,-10 479,-10"/>
<text text-anchor="start" x="502.63" y="-15.4" font-family="sans-serif" font-size="14.00"> &#160;Declarations</text>
<polygon fill="#8dd3c7" stroke="transparent" points="592,-10 592,-30 612,-30 612,-10 592,-10"/>
<text text-anchor="start" x="615.73" y="-15.4" font-family="sans-serif" font-size="14.00"> &#160;Module</text>
<polygon fill="#80b1d3" stroke="transparent" points="678,-10 678,-30 698,-30 698,-10 678,-10"/>
<text text-anchor="start" x="701.78" y="-15.4" font-family="sans-serif" font-size="14.00"> &#160;Bootstrap</text>
<polygon fill="#fdb462" stroke="transparent" points="775,-10 775,-30 795,-30 795,-10 775,-10"/>
<text text-anchor="start" x="798.67" y="-15.4" font-family="sans-serif" font-size="14.00"> &#160;Providers</text>
<polygon fill="#fb8072" stroke="transparent" points="871,-10 871,-30 891,-30 891,-10 871,-10"/>
<text text-anchor="start" x="894.73" y="-15.4" font-family="sans-serif" font-size="14.00"> &#160;Exports</text>
<g id="clust1" class="cluster">
<title>cluster_AdminModule</title>
<polygon fill="none" stroke="black" stroke-dasharray="1,5" points="8,-70 8,-268 1418,-268 1418,-70 8,-70"/>
</g>
<g id="clust2" class="cluster">
<title>cluster_AdminModule_declarations</title>
<polygon fill="none" stroke="black" points="138,-78 138,-130 1410,-130 1410,-78 138,-78"/>
</g>
<g id="clust11" class="cluster">
<title>cluster_AdminModule_exports</title>
<polygon fill="none" stroke="black" points="139,-208 139,-260 1234,-260 1234,-208 139,-208"/>
</g>
<g id="clust10" class="cluster">
<title>cluster_AdminModule_imports</title>
<polygon fill="none" stroke="black" points="16,-78 16,-130 130,-130 130,-78 16,-78"/>
</g>
<!-- AdminComponent -->
<g id="node1" class="node">
<title>AdminComponent</title>
<polygon fill="#ffffb3" stroke="black" points="1402.22,-122 1281.78,-122 1281.78,-86 1402.22,-86 1402.22,-122"/>
<text text-anchor="middle" x="1342" y="-99.8" font-family="Times,serif" font-size="14.00">AdminComponent</text>
</g>
<!-- AdminModule -->
<g id="node8" class="node">
<title>AdminModule</title>
<polygon fill="#8dd3c7" stroke="black" points="774.44,-187 771.44,-191 750.44,-191 747.44,-187 675.56,-187 675.56,-151 774.44,-151 774.44,-187"/>
<text text-anchor="middle" x="725" y="-164.8" font-family="Times,serif" font-size="14.00">AdminModule</text>
</g>
<!-- AdminComponent&#45;&gt;AdminModule -->
<g id="edge1" class="edge">
<title>AdminComponent&#45;&gt;AdminModule</title>
<path fill="none" stroke="black" d="M1342,-122.11C1342,-141.34 1342,-169 1342,-169 1342,-169 784.45,-169 784.45,-169"/>
<polygon fill="black" stroke="black" points="784.45,-165.5 774.45,-169 784.45,-172.5 784.45,-165.5"/>
</g>
<!-- AdminHomeComponent -->
<g id="node2" class="node">
<title>AdminHomeComponent</title>
<polygon fill="#ffffb3" stroke="black" points="1264.43,-122 1109.57,-122 1109.57,-86 1264.43,-86 1264.43,-122"/>
<text text-anchor="middle" x="1187" y="-99.8" font-family="Times,serif" font-size="14.00">AdminHomeComponent</text>
</g>
<!-- AdminHomeComponent&#45;&gt;AdminModule -->
<g id="edge2" class="edge">
<title>AdminHomeComponent&#45;&gt;AdminModule</title>
<path fill="none" stroke="black" d="M1167.82,-122.02C1167.82,-139.37 1167.82,-163 1167.82,-163 1167.82,-163 784.51,-163 784.51,-163"/>
<polygon fill="black" stroke="black" points="784.51,-159.5 774.51,-163 784.51,-166.5 784.51,-159.5"/>
</g>
<!-- AdminNavigationComponent -->
<g id="node3" class="node">
<title>AdminNavigationComponent</title>
<polygon fill="#ffffb3" stroke="black" points="1092.43,-122 909.57,-122 909.57,-86 1092.43,-86 1092.43,-122"/>
<text text-anchor="middle" x="1001" y="-99.8" font-family="Times,serif" font-size="14.00">AdminNavigationComponent</text>
</g>
<!-- AdminNavigationComponent&#45;&gt;AdminModule -->
<g id="edge3" class="edge">
<title>AdminNavigationComponent&#45;&gt;AdminModule</title>
<path fill="none" stroke="black" d="M917.91,-122.24C917.91,-137.57 917.91,-157 917.91,-157 917.91,-157 784.43,-157 784.43,-157"/>
<polygon fill="black" stroke="black" points="784.43,-153.5 774.43,-157 784.43,-160.5 784.43,-153.5"/>
</g>
<!-- AnalyticsComponent -->
<g id="node4" class="node">
<title>AnalyticsComponent</title>
<polygon fill="#ffffb3" stroke="black" points="891.48,-122 756.52,-122 756.52,-86 891.48,-86 891.48,-122"/>
<text text-anchor="middle" x="824" y="-99.8" font-family="Times,serif" font-size="14.00">AnalyticsComponent</text>
</g>
<!-- AnalyticsComponent&#45;&gt;AdminModule -->
<g id="edge4" class="edge">
<title>AnalyticsComponent&#45;&gt;AdminModule</title>
<path fill="none" stroke="black" d="M765.36,-122.11C765.36,-122.11 765.36,-140.99 765.36,-140.99"/>
<polygon fill="black" stroke="black" points="761.86,-140.99 765.36,-150.99 768.86,-140.99 761.86,-140.99"/>
</g>
<!-- ArchiveManagementComponent -->
<g id="node5" class="node">
<title>ArchiveManagementComponent</title>
<polygon fill="#ffffb3" stroke="black" points="738.5,-122 539.5,-122 539.5,-86 738.5,-86 738.5,-122"/>
<text text-anchor="middle" x="639" y="-99.8" font-family="Times,serif" font-size="14.00">ArchiveManagementComponent</text>
</g>
<!-- ArchiveManagementComponent&#45;&gt;AdminModule -->
<g id="edge5" class="edge">
<title>ArchiveManagementComponent&#45;&gt;AdminModule</title>
<path fill="none" stroke="black" d="M707.27,-122.11C707.27,-122.11 707.27,-140.99 707.27,-140.99"/>
<polygon fill="black" stroke="black" points="703.77,-140.99 707.27,-150.99 710.77,-140.99 703.77,-140.99"/>
</g>
<!-- SiteManagementComponent -->
<g id="node6" class="node">
<title>SiteManagementComponent</title>
<polygon fill="#ffffb3" stroke="black" points="521.2,-122 344.8,-122 344.8,-86 521.2,-86 521.2,-122"/>
<text text-anchor="middle" x="433" y="-99.8" font-family="Times,serif" font-size="14.00">SiteManagementComponent</text>
</g>
<!-- SiteManagementComponent&#45;&gt;AdminModule -->
<g id="edge6" class="edge">
<title>SiteManagementComponent&#45;&gt;AdminModule</title>
<path fill="none" stroke="black" d="M433,-122.24C433,-137.57 433,-157 433,-157 433,-157 665.47,-157 665.47,-157"/>
<polygon fill="black" stroke="black" points="665.47,-160.5 675.47,-157 665.47,-153.5 665.47,-160.5"/>
</g>
<!-- UserManagementComponent -->
<g id="node7" class="node">
<title>UserManagementComponent</title>
<polygon fill="#ffffb3" stroke="black" points="326.34,-122 145.66,-122 145.66,-86 326.34,-86 326.34,-122"/>
<text text-anchor="middle" x="236" y="-99.8" font-family="Times,serif" font-size="14.00">UserManagementComponent</text>
</g>
<!-- UserManagementComponent&#45;&gt;AdminModule -->
<g id="edge7" class="edge">
<title>UserManagementComponent&#45;&gt;AdminModule</title>
<path fill="none" stroke="black" d="M206.91,-122.02C206.91,-139.37 206.91,-163 206.91,-163 206.91,-163 665.32,-163 665.32,-163"/>
<polygon fill="black" stroke="black" points="665.32,-166.5 675.32,-163 665.32,-159.5 665.32,-166.5"/>
</g>
<!-- AdminComponent  -->
<g id="node10" class="node">
<title>AdminComponent </title>
<polygon fill="#fb8072" stroke="black" points="1225.72,-252 1102.28,-252 1102.28,-216 1225.72,-216 1225.72,-252"/>
<text text-anchor="middle" x="1164" y="-229.8" font-family="Times,serif" font-size="14.00">AdminComponent </text>
</g>
<!-- AdminModule&#45;&gt;AdminComponent  -->
<g id="edge9" class="edge">
<title>AdminModule&#45;&gt;AdminComponent </title>
<path fill="none" stroke="black" stroke-dasharray="5,2" d="M774.41,-175C877.49,-175 1105.96,-175 1105.96,-175 1105.96,-175 1105.96,-205.98 1105.96,-205.98"/>
<polygon fill="black" stroke="black" points="1102.46,-205.98 1105.96,-215.98 1109.46,-205.98 1102.46,-205.98"/>
</g>
<!-- AdminHomeComponent  -->
<g id="node11" class="node">
<title>AdminHomeComponent </title>
<polygon fill="#fb8072" stroke="black" points="1083.93,-252 926.07,-252 926.07,-216 1083.93,-216 1083.93,-252"/>
<text text-anchor="middle" x="1005" y="-229.8" font-family="Times,serif" font-size="14.00">AdminHomeComponent </text>
</g>
<!-- AdminModule&#45;&gt;AdminHomeComponent  -->
<g id="edge10" class="edge">
<title>AdminModule&#45;&gt;AdminHomeComponent </title>
<path fill="none" stroke="black" stroke-dasharray="5,2" d="M774.41,-181C854.8,-181 1005,-181 1005,-181 1005,-181 1005,-205.76 1005,-205.76"/>
<polygon fill="black" stroke="black" points="1001.5,-205.76 1005,-215.76 1008.5,-205.76 1001.5,-205.76"/>
</g>
<!-- AdminNavigationComponent  -->
<g id="node12" class="node">
<title>AdminNavigationComponent </title>
<polygon fill="#fb8072" stroke="black" points="907.93,-252 722.07,-252 722.07,-216 907.93,-216 907.93,-252"/>
<text text-anchor="middle" x="815" y="-229.8" font-family="Times,serif" font-size="14.00">AdminNavigationComponent </text>
</g>
<!-- AdminModule&#45;&gt;AdminNavigationComponent  -->
<g id="edge11" class="edge">
<title>AdminModule&#45;&gt;AdminNavigationComponent </title>
<path fill="none" stroke="black" stroke-dasharray="5,2" d="M748.13,-187.11C748.13,-187.11 748.13,-205.99 748.13,-205.99"/>
<polygon fill="black" stroke="black" points="744.63,-205.99 748.13,-215.99 751.63,-205.99 744.63,-205.99"/>
</g>
<!-- AnalyticsComponent  -->
<g id="node13" class="node">
<title>AnalyticsComponent </title>
<polygon fill="#fb8072" stroke="black" points="704.49,-252 565.51,-252 565.51,-216 704.49,-216 704.49,-252"/>
<text text-anchor="middle" x="635" y="-229.8" font-family="Times,serif" font-size="14.00">AnalyticsComponent </text>
</g>
<!-- AdminModule&#45;&gt;AnalyticsComponent  -->
<g id="edge12" class="edge">
<title>AdminModule&#45;&gt;AnalyticsComponent </title>
<path fill="none" stroke="black" stroke-dasharray="5,2" d="M690.01,-187.11C690.01,-187.11 690.01,-205.99 690.01,-205.99"/>
<polygon fill="black" stroke="black" points="686.51,-205.99 690.01,-215.99 693.51,-205.99 686.51,-205.99"/>
</g>
<!-- ArchiveManagementComponent  -->
<g id="node14" class="node">
<title>ArchiveManagementComponent </title>
<polygon fill="#fb8072" stroke="black" points="547.5,-252 344.5,-252 344.5,-216 547.5,-216 547.5,-252"/>
<text text-anchor="middle" x="446" y="-229.8" font-family="Times,serif" font-size="14.00">ArchiveManagementComponent </text>
</g>
<!-- AdminModule&#45;&gt;ArchiveManagementComponent  -->
<g id="edge13" class="edge">
<title>AdminModule&#45;&gt;ArchiveManagementComponent </title>
<path fill="none" stroke="black" stroke-dasharray="5,2" d="M675.37,-181C621.59,-181 543.38,-181 543.38,-181 543.38,-181 543.38,-205.76 543.38,-205.76"/>
<polygon fill="black" stroke="black" points="539.88,-205.76 543.38,-215.76 546.88,-205.76 539.88,-205.76"/>
</g>
<!-- SiteManagementComponent  -->
<g id="node15" class="node">
<title>SiteManagementComponent </title>
<polygon fill="#fb8072" stroke="black" points="326.7,-252 147.3,-252 147.3,-216 326.7,-216 326.7,-252"/>
<text text-anchor="middle" x="237" y="-229.8" font-family="Times,serif" font-size="14.00">SiteManagementComponent </text>
</g>
<!-- AdminModule&#45;&gt;SiteManagementComponent  -->
<g id="edge14" class="edge">
<title>AdminModule&#45;&gt;SiteManagementComponent </title>
<path fill="none" stroke="black" stroke-dasharray="5,2" d="M675.51,-175C557,-175 266.67,-175 266.67,-175 266.67,-175 266.67,-205.98 266.67,-205.98"/>
<polygon fill="black" stroke="black" points="263.17,-205.98 266.67,-215.98 270.17,-205.98 263.17,-205.98"/>
</g>
<!-- SharedModule -->
<g id="node9" class="node">
<title>SharedModule</title>
<polygon fill="#8dd3c7" stroke="black" points="122.42,-122 119.42,-126 98.42,-126 95.42,-122 23.58,-122 23.58,-86 122.42,-86 122.42,-122"/>
<text text-anchor="middle" x="73" y="-99.8" font-family="Times,serif" font-size="14.00">SharedModule</text>
</g>
<!-- SharedModule&#45;&gt;AdminModule -->
<g id="edge8" class="edge">
<title>SharedModule&#45;&gt;AdminModule</title>
<path fill="none" stroke="black" d="M73,-122.11C73,-141.34 73,-169 73,-169 73,-169 665.73,-169 665.73,-169"/>
<polygon fill="black" stroke="black" points="665.73,-172.5 675.73,-169 665.73,-165.5 665.73,-172.5"/>
</g>
</g>
</svg>
