<?xml version="1.0" encoding="UTF-8" standalone="no"?>
<!DOCTYPE svg PUBLIC "-//W3C//DTD SVG 1.1//EN"
 "http://www.w3.org/Graphics/SVG/1.1/DTD/svg11.dtd">
<!-- Generated by graphviz version 2.46.1 (20210213.1702)
 -->
<!-- Title: dependencies Pages: 1 -->
<svg width="889pt" height="284pt"
 viewBox="0.00 0.00 889.00 284.00" xmlns="http://www.w3.org/2000/svg" xmlns:xlink="http://www.w3.org/1999/xlink">
<g id="graph0" class="graph" transform="scale(1 1) rotate(0) translate(4 280)">
<title>dependencies</title>
<polygon fill="white" stroke="transparent" points="-4,4 -4,-280 885,-280 885,4 -4,4"/>
<text text-anchor="start" x="419.51" y="-42.4" font-family="sans-serif" font-weight="bold" font-size="14.00">Legend</text>
<polygon fill="#ffffb3" stroke="transparent" points="206.5,-10 206.5,-30 226.5,-30 226.5,-10 206.5,-10"/>
<text text-anchor="start" x="230.13" y="-15.4" font-family="sans-serif" font-size="14.00"> &#160;Declarations</text>
<polygon fill="#8dd3c7" stroke="transparent" points="319.5,-10 319.5,-30 339.5,-30 339.5,-10 319.5,-10"/>
<text text-anchor="start" x="343.23" y="-15.4" font-family="sans-serif" font-size="14.00"> &#160;Module</text>
<polygon fill="#80b1d3" stroke="transparent" points="405.5,-10 405.5,-30 425.5,-30 425.5,-10 405.5,-10"/>
<text text-anchor="start" x="429.28" y="-15.4" font-family="sans-serif" font-size="14.00"> &#160;Bootstrap</text>
<polygon fill="#fdb462" stroke="transparent" points="502.5,-10 502.5,-30 522.5,-30 522.5,-10 502.5,-10"/>
<text text-anchor="start" x="526.17" y="-15.4" font-family="sans-serif" font-size="14.00"> &#160;Providers</text>
<polygon fill="#fb8072" stroke="transparent" points="598.5,-10 598.5,-30 618.5,-30 618.5,-10 598.5,-10"/>
<text text-anchor="start" x="622.23" y="-15.4" font-family="sans-serif" font-size="14.00"> &#160;Exports</text>
<g id="clust1" class="cluster">
<title>cluster_AppModule</title>
<polygon fill="none" stroke="black" stroke-dasharray="1,5" points="8,-70 8,-268 873,-268 873,-70 8,-70"/>
</g>
<g id="clust2" class="cluster">
<title>cluster_AppModule_declarations</title>
<polygon fill="none" stroke="black" points="743,-78 743,-130 865,-130 865,-78 743,-78"/>
</g>
<g id="clust4" class="cluster">
<title>cluster_AppModule_imports</title>
<polygon fill="none" stroke="black" points="16,-78 16,-130 735,-130 735,-78 16,-78"/>
</g>
<g id="clust6" class="cluster">
<title>cluster_AppModule_bootstrap</title>
<polygon fill="none" stroke="black" points="349,-208 349,-260 473,-260 473,-208 349,-208"/>
</g>
<!-- AppComponent -->
<g id="node1" class="node">
<title>AppComponent</title>
<polygon fill="#ffffb3" stroke="black" points="856.94,-122 751.06,-122 751.06,-86 856.94,-86 856.94,-122"/>
<text text-anchor="middle" x="804" y="-99.8" font-family="Times,serif" font-size="14.00">AppComponent</text>
</g>
<!-- AppModule -->
<g id="node2" class="node">
<title>AppModule</title>
<polygon fill="#8dd3c7" stroke="black" points="452.66,-187 449.66,-191 428.66,-191 425.66,-187 369.34,-187 369.34,-151 452.66,-151 452.66,-187"/>
<text text-anchor="middle" x="411" y="-164.8" font-family="Times,serif" font-size="14.00">AppModule</text>
</g>
<!-- AppComponent&#45;&gt;AppModule -->
<g id="edge1" class="edge">
<title>AppComponent&#45;&gt;AppModule</title>
<path fill="none" stroke="black" d="M804,-122.29C804,-144.21 804,-178 804,-178 804,-178 462.69,-178 462.69,-178"/>
<polygon fill="black" stroke="black" points="462.69,-174.5 452.69,-178 462.69,-181.5 462.69,-174.5"/>
</g>
<!-- AppComponent  -->
<g id="node9" class="node">
<title>AppComponent </title>
<polygon fill="#80b1d3" stroke="black" points="465.44,-252 356.56,-252 356.56,-216 465.44,-216 465.44,-252"/>
<text text-anchor="middle" x="411" y="-229.8" font-family="Times,serif" font-size="14.00">AppComponent </text>
</g>
<!-- AppModule&#45;&gt;AppComponent  -->
<g id="edge8" class="edge">
<title>AppModule&#45;&gt;AppComponent </title>
<path fill="none" stroke="black" stroke-dasharray="1,5" d="M411,-187.11C411,-187.11 411,-205.99 411,-205.99"/>
<polygon fill="black" stroke="black" points="407.5,-205.99 411,-215.99 414.5,-205.99 407.5,-205.99"/>
</g>
<!-- AdminModule -->
<g id="node3" class="node">
<title>AdminModule</title>
<polygon fill="#8dd3c7" stroke="black" points="727.44,-122 724.44,-126 703.44,-126 700.44,-122 628.56,-122 628.56,-86 727.44,-86 727.44,-122"/>
<text text-anchor="middle" x="678" y="-99.8" font-family="Times,serif" font-size="14.00">AdminModule</text>
</g>
<!-- AdminModule&#45;&gt;AppModule -->
<g id="edge2" class="edge">
<title>AdminModule&#45;&gt;AppModule</title>
<path fill="none" stroke="black" d="M678,-122.11C678,-141.34 678,-169 678,-169 678,-169 462.72,-169 462.72,-169"/>
<polygon fill="black" stroke="black" points="462.72,-165.5 452.72,-169 462.72,-172.5 462.72,-165.5"/>
</g>
<!-- AppRoutingModule -->
<g id="node4" class="node">
<title>AppRoutingModule</title>
<polygon fill="#8dd3c7" stroke="black" points="610.27,-122 607.27,-126 586.27,-126 583.27,-122 481.73,-122 481.73,-86 610.27,-86 610.27,-122"/>
<text text-anchor="middle" x="546" y="-99.8" font-family="Times,serif" font-size="14.00">AppRoutingModule</text>
</g>
<!-- AppRoutingModule&#45;&gt;AppModule -->
<g id="edge3" class="edge">
<title>AppRoutingModule&#45;&gt;AppModule</title>
<path fill="none" stroke="black" d="M546,-122.03C546,-138.4 546,-160 546,-160 546,-160 462.97,-160 462.97,-160"/>
<polygon fill="black" stroke="black" points="462.97,-156.5 452.97,-160 462.97,-163.5 462.97,-156.5"/>
</g>
<!-- ArchiveModule -->
<g id="node5" class="node">
<title>ArchiveModule</title>
<polygon fill="#8dd3c7" stroke="black" points="463.14,-122 460.14,-126 439.14,-126 436.14,-122 358.86,-122 358.86,-86 463.14,-86 463.14,-122"/>
<text text-anchor="middle" x="411" y="-99.8" font-family="Times,serif" font-size="14.00">ArchiveModule</text>
</g>
<!-- ArchiveModule&#45;&gt;AppModule -->
<g id="edge4" class="edge">
<title>ArchiveModule&#45;&gt;AppModule</title>
<path fill="none" stroke="black" d="M411,-122.11C411,-122.11 411,-140.99 411,-140.99"/>
<polygon fill="black" stroke="black" points="407.5,-140.99 411,-150.99 414.5,-140.99 407.5,-140.99"/>
</g>
<!-- AuthModule -->
<g id="node6" class="node">
<title>AuthModule</title>
<polygon fill="#8dd3c7" stroke="black" points="340.55,-122 337.55,-126 316.55,-126 313.55,-122 253.45,-122 253.45,-86 340.55,-86 340.55,-122"/>
<text text-anchor="middle" x="297" y="-99.8" font-family="Times,serif" font-size="14.00">AuthModule</text>
</g>
<!-- AuthModule&#45;&gt;AppModule -->
<g id="edge5" class="edge">
<title>AuthModule&#45;&gt;AppModule</title>
<path fill="none" stroke="black" d="M297,-122.03C297,-138.4 297,-160 297,-160 297,-160 359.2,-160 359.2,-160"/>
<polygon fill="black" stroke="black" points="359.2,-163.5 369.2,-160 359.2,-156.5 359.2,-163.5"/>
</g>
<!-- PublicModule -->
<g id="node7" class="node">
<title>PublicModule</title>
<polygon fill="#8dd3c7" stroke="black" points="235.83,-122 232.83,-126 211.83,-126 208.83,-122 140.17,-122 140.17,-86 235.83,-86 235.83,-122"/>
<text text-anchor="middle" x="188" y="-99.8" font-family="Times,serif" font-size="14.00">PublicModule</text>
</g>
<!-- PublicModule&#45;&gt;AppModule -->
<g id="edge6" class="edge">
<title>PublicModule&#45;&gt;AppModule</title>
<path fill="none" stroke="black" d="M188,-122.11C188,-141.34 188,-169 188,-169 188,-169 359.32,-169 359.32,-169"/>
<polygon fill="black" stroke="black" points="359.32,-172.5 369.32,-169 359.32,-165.5 359.32,-172.5"/>
</g>
<!-- SharedModule -->
<g id="node8" class="node">
<title>SharedModule</title>
<polygon fill="#8dd3c7" stroke="black" points="122.42,-122 119.42,-126 98.42,-126 95.42,-122 23.58,-122 23.58,-86 122.42,-86 122.42,-122"/>
<text text-anchor="middle" x="73" y="-99.8" font-family="Times,serif" font-size="14.00">SharedModule</text>
</g>
<!-- SharedModule&#45;&gt;AppModule -->
<g id="edge7" class="edge">
<title>SharedModule&#45;&gt;AppModule</title>
<path fill="none" stroke="black" d="M73,-122.29C73,-144.21 73,-178 73,-178 73,-178 359.22,-178 359.22,-178"/>
<polygon fill="black" stroke="black" points="359.22,-181.5 369.22,-178 359.22,-174.5 359.22,-181.5"/>
</g>
</g>
</svg>
